<?xml version="1.0" encoding="utf-8" ?>
<svg xmlns="http://www.w3.org/2000/svg" xmlns:xlink="http://www.w3.org/1999/xlink" width="512" height="512">
	<defs>
		<linearGradient id="gradient_0" gradientUnits="userSpaceOnUse" x1="61.216499" y1="588.90503" x2="62.9347" y2="557.745">
			<stop offset="0" stop-color="#39369E"/>
			<stop offset="1" stop-color="#5253A8"/>
		</linearGradient>
	</defs>
	<path fill="url(#gradient_0)" transform="scale(0.666667 0.666667)" d="M51.5093 557.675C52.1292 557.495 52.1515 557.408 52.7958 557.593C55.1717 558.277 58.2652 557.797 60.7885 557.87C61.4387 557.889 61.9863 558.03 62.6224 558.126C64.1996 558.366 65.7872 558.574 67.3703 558.419C68.8116 558.279 70.365 558.746 71.8126 558.918C72.2795 559.489 72.4425 559.736 72.4857 560.479L73.021 560.533L73.0601 580.354C73.0585 584.228 73.3029 588.327 72.7937 592.165L51.5093 557.675Z"/>
	<defs>
		<linearGradient id="gradient_1" gradientUnits="userSpaceOnUse" x1="27.297701" y1="531.20099" x2="30.688801" y2="451.91101">
			<stop offset="0" stop-color="#4C4B94"/>
			<stop offset="1" stop-color="#878BB7"/>
		</linearGradient>
	</defs>
	<path fill="url(#gradient_1)" transform="scale(0.666667 0.666667)" d="M16.478 451.75L41.0742 451.805L41.0484 476.918C40.9918 482.791 40.5224 489.16 41.6561 494.943C42.7368 500.456 42.0119 507.297 42.011 512.986C42.0101 518.276 42.5154 524.238 41.8364 529.444C41.6104 531.177 41.0131 532.703 40.2707 534.27L40.1631 534.346C32.7381 517.075 26.7079 498.849 22.1862 480.6L18.4647 462.444C17.8321 459.413 15.8879 454.747 16.478 451.75Z"/>
	<defs>
		<linearGradient id="gradient_2" gradientUnits="userSpaceOnUse" x1="108.692" y1="593.52399" x2="107.692" y2="653.53802">
			<stop offset="0" stop-color="#6D90FB"/>
			<stop offset="1" stop-color="#4372FF"/>
		</linearGradient>
	</defs>
	<path fill="url(#gradient_2)" transform="scale(0.666667 0.666667)" d="M78.7393 593.546C79.2207 593.847 80.2516 594.698 80.7503 594.804C81.5894 594.984 82.8278 594.561 83.7048 594.538C84.3349 594.521 84.606 594.669 85.189 594.376L85.4975 594.187L85.9973 594.52L86.625 593.815L87.1297 594.152L87.7475 593.812L88.2547 594.152L88.8725 593.812L89.3797 594.152L90.0864 593.819L90.5795 594.371C91.5459 595.206 93.473 594.933 94.6353 594.619L95.1222 594.478C95.9753 595.039 96.6661 594.984 97.667 594.976L105.018 594.964C105.812 594.964 107.142 594.787 107.876 595.033C109.355 595.527 111.271 595.394 112.893 595.339C113.748 595.309 114.752 595.195 115.594 595.428C116.749 595.747 115.793 595.731 116.802 595.731C118.87 595.732 122.905 595.165 124.751 595.783C125.889 596.163 126.773 596.056 127.998 596.105C128.572 596.128 128.892 595.787 129.376 595.496L129.813 595.603L130.406 595.45L130.938 595.604L131.531 595.45L132.06 595.601L132.58 595.155L133.559 595.096L136.997 594.546C137.278 593.966 137.505 593.589 137.956 593.112L138.352 592.719L138.275 637.449C138.248 643.003 137.47 648.922 138.19 654.435L135.388 655.249L94.7742 615.852C89.2662 610.508 83.0817 605.29 78.1807 599.403C78.6116 597.417 78.6988 595.568 78.7393 593.546Z"/>
	<defs>
		<linearGradient id="gradient_3" gradientUnits="userSpaceOnUse" x1="690.86401" y1="174.33" x2="55.833302" y2="563.02399">
			<stop offset="0" stop-color="#3A2E2C"/>
			<stop offset="1" stop-color="#091068"/>
		</linearGradient>
	</defs>
	<path fill="url(#gradient_3)" transform="scale(0.666667 0.666667)" d="M16.0791 447.608L15.0662 447.327C14.0132 444.967 14.0286 441.346 13.7534 438.75L12.0414 419.226L10.624 394.688C10.211 363.27 13.6476 331.393 20.7337 300.788C23.9068 287.083 27.778 273.194 32.7846 260.039C46.3679 224.347 65.3388 189.526 88.6518 159.263C105.617 137.24 125.407 116.956 146.657 99.0732C158.431 89.1657 170.818 79.7008 183.811 71.4375C199.378 61.5375 215.736 52.9216 232.587 45.4306C258.194 34.0464 285.289 25.2594 312.836 20.0223C335.503 15.7131 358.776 13.9542 381.825 13.8164C426.533 13.5489 471.072 19.7593 512.954 35.8999C545.943 48.6132 578.423 66.1933 606.635 87.5463C632.234 106.922 654.832 130.012 675.067 154.875C696.248 180.901 715.288 209.188 728.822 239.994C747.347 282.16 755.766 329.128 757.648 374.914C758.623 398.649 757.928 422.394 754.017 445.859C750.602 466.356 744.052 487.124 736.464 506.458C729.02 525.424 720.114 543.76 709.385 561.095L690.289 590.506C684.591 600.347 676.286 608.287 668.654 616.611C664.902 620.702 661.559 625.141 657.106 628.535C653.224 632.706 648.987 636.233 644.915 640.171C639.677 645.237 634.606 651.762 628.404 655.579C626.512 657.637 624.69 659.888 622.687 661.828C619.354 665.058 615.312 667.969 611.723 670.931C609.232 673.376 606.096 675.536 603.267 677.591L588.739 687.751C546.155 716.87 498.702 738.548 447.858 748.244C398.29 757.697 346.332 756.204 297.575 743.122C264.061 734.129 231.627 719.59 201.546 702.403C184.631 692.739 168.623 681.545 152.534 670.612C146.259 666.908 140.865 660.099 135.388 655.249L138.19 654.435C137.47 648.922 138.248 643.003 138.275 637.449L138.352 592.719L137.956 593.112C137.505 593.589 137.278 593.966 136.997 594.546L133.559 595.096L132.58 595.155L132.06 595.601L131.531 595.45L130.938 595.604L130.406 595.45L129.813 595.603L129.376 595.496C128.892 595.787 128.572 596.128 127.998 596.105C126.773 596.056 125.889 596.163 124.751 595.783C122.905 595.165 118.87 595.732 116.802 595.731C115.793 595.731 116.749 595.747 115.594 595.428C114.752 595.195 113.748 595.309 112.893 595.339C111.271 595.394 109.355 595.527 107.876 595.033C107.142 594.787 105.812 594.964 105.018 594.964L97.667 594.976C96.6661 594.984 95.9753 595.039 95.1222 594.478L94.6353 594.619C93.473 594.933 91.5459 595.206 90.5795 594.371L90.0864 593.819L89.3797 594.152L88.8725 593.812L88.2547 594.152L87.7475 593.812L87.1297 594.152L86.625 593.815L85.9973 594.52L85.4975 594.187L85.189 594.376C84.606 594.669 84.3349 594.521 83.7048 594.538C82.8278 594.561 81.5894 594.984 80.7503 594.804C80.2516 594.698 79.2207 593.847 78.7393 593.546C78.6988 595.568 78.6116 597.417 78.1807 599.403C76.0996 597.198 74.4226 594.711 72.7937 592.165C73.3029 588.327 73.0585 584.228 73.0601 580.354L73.021 560.533L72.4857 560.479C72.4425 559.736 72.2795 559.489 71.8126 558.918C70.365 558.746 68.8116 558.279 67.3703 558.419C65.7872 558.574 64.1996 558.366 62.6224 558.126C61.9863 558.03 61.4387 557.889 60.7885 557.87C58.2652 557.797 55.1717 558.277 52.7958 557.593C52.1515 557.408 52.1292 557.495 51.5093 557.675C51.0791 557.456 49.538 553.9 49.2025 553.213L40.1631 534.346L40.2707 534.27C41.0131 532.703 41.6104 531.177 41.8364 529.444C42.5154 524.238 42.0101 518.276 42.011 512.986C42.0119 507.297 42.7368 500.456 41.6561 494.943C40.5224 489.16 40.9918 482.791 41.0484 476.918L41.0742 451.805L16.478 451.75C16.5996 450.378 16.551 450.437 17.5696 449.515L16.0791 447.608ZM542.596 597.172L500.239 615.994C495.919 617.963 490.617 619.607 486.711 622.199L486.268 622.331L472.292 629.591L471.866 630.005L424.103 653.393C421.24 653.807 418.6 654.005 415.709 653.87L415.587 653.77L410.348 653.632L383.677 653.629L352.519 653.942L309.108 653.938L282.269 654.007L250.513 653.99L187.115 653.993L169.661 654.013C165.094 654.052 159.986 654.627 155.533 653.515L154.714 653.519L138.19 654.435L135.388 655.249C140.865 660.099 146.259 666.908 152.534 670.612C168.623 681.545 184.631 692.739 201.546 702.403C231.627 719.59 264.061 734.129 297.575 743.122C346.332 756.204 398.29 757.697 447.858 748.244C498.702 738.548 546.155 716.87 588.739 687.751L603.267 677.591C606.096 675.536 609.232 673.376 611.723 670.931C615.312 667.969 619.354 665.058 622.687 661.828C624.69 659.888 626.512 657.637 628.404 655.579C627.352 654.863 626.103 654.995 624.846 654.941L614.991 654.85L598.645 654.462C595.163 654.374 591.684 654.517 588.224 654.049C591.606 653.76 595.189 654.104 598.587 654.199L599.034 586.006L599.016 570.515C599.006 567.351 599.21 563.96 598.57 560.856L542.596 597.172ZM687.405 361.324C686.532 362.126 685.236 363.053 684.609 364.045L626.71 411.074L599.731 432.576L553.938 465.563C526.528 485.178 498.696 505.442 468.422 520.459L417.769 545.077L410.58 548.526C407.139 550.698 402.988 551.976 399.274 553.657C394.181 555.962 389.109 558.702 383.862 560.615L375.646 564.486L376.356 565.875C377.226 566.068 377.731 565.937 378.249 566.755L378.567 567.409L378.118 567.903C376.982 569.202 376.876 570.856 376.132 572.331C375.646 573.294 374.785 574.221 374.212 575.178C373.109 577.017 372.35 578.088 371.869 580.233C371.659 581.17 371.112 581.646 370.807 582.504L368.25 589.945C367.991 590.604 367.99 590.925 368.081 591.613L367.818 592.023C367.15 593.234 366.95 594.653 366.579 595.972L366.374 596.636C366.018 597.849 366.295 599.114 366.024 600.375L365.9 600.974C365.718 601.699 365.403 602.26 365.051 602.913C365.586 603.99 365.895 604.747 366.992 605.365L366.703 605.565C365.596 606.343 364.804 606.969 363.933 608.002L365.923 608.485L383.389 600.869L383.677 653.629L410.348 653.632L415.587 653.77L415.709 653.87C418.6 654.005 421.24 653.807 424.103 653.393L471.866 630.005L472.292 629.591L486.268 622.331L486.711 622.199C490.617 619.607 495.919 617.963 500.239 615.994L542.596 597.172L598.57 560.856L598.694 560.663C606.588 556.338 613.85 549.424 620.896 543.787L657.056 514.751L657.991 513.553C658.213 508.166 657.124 502.976 657.038 497.62L657.047 455.348L657.009 442.81C656.995 439.539 657.187 436.404 656.164 433.252L671.63 420.607C676.315 416.751 681.021 413.116 685.189 408.665C684.705 405.706 684.952 402.343 684.946 399.344L684.936 383.871L685.327 383.468L685.691 384L686.062 384.559L686.434 384.188C686.434 383.324 686.682 382.376 686.062 381.75L685.689 382.498L685.465 382.312L685.657 375.938L686.062 375.735C686.211 376.383 686.394 376.697 686.812 377.212L687.562 376.743L687.938 377.42C688.17 376.75 688.488 376.161 688.825 375.538C688.53 373.045 688.992 370.7 688.845 368.25C688.784 367.254 688.431 366.358 688.344 365.369C688.276 364.595 688.373 365.108 688.123 364.219L687.375 364.309L686.816 363.75C687.317 362.996 687.287 362.587 687.371 361.713L687.405 361.324ZM187.704 349.492C186.075 349.529 183.932 349.309 182.377 349.695L183.147 350.25C182.972 351.825 182.788 353.269 182.302 354.787L183.829 355.312L184.688 357.987C185.468 358.197 185.978 358.332 186.785 358.327C188.509 358.317 189.981 359.237 191.625 359.362C194.91 359.611 198.259 359.301 201.562 359.491L208.956 360.422C209.915 360.471 210.142 360.739 210.938 361.252C211.383 360.65 211.3 360.919 211.4 360.225C211.524 359.369 211.56 358.729 211.952 357.937C212.39 357.054 212.654 356.163 212.946 355.224L212.799 352.488C212.756 351.551 212.759 350.659 212.438 349.765C209.868 348.903 206.704 349.449 204.021 349.462L187.704 349.492ZM223.311 239.477L223.745 241.368L224.127 241.081C225.93 240.096 228.992 240.976 231.094 240.404C234.495 239.478 238.106 240.559 241.455 240.848C244.082 241.074 246.713 241.054 249.347 241.039L250.052 241.479L252.99 241.54C259.412 242.563 267.101 241.975 273.622 241.848L280.599 241.924C280.563 240.273 280.506 238.787 280.04 237.188L279.616 236.993C276.714 235.986 225.569 236.194 223.817 237.189C223.374 237.44 223.378 238.95 223.311 239.477ZM155.436 354.061C157.124 354.203 158.825 354.598 160.5 354.671L182.302 354.787C182.788 353.269 182.972 351.825 183.147 350.25L182.377 349.695L163.092 349.968C161.067 350.021 157.309 349.608 155.601 350.438L155.436 354.061ZM684.936 383.871L684.946 399.344C684.952 402.343 684.705 405.706 685.189 408.665C686.685 407.767 688.41 407.406 689.965 406.601C689.422 403.571 689.494 398.757 689.907 395.694L690 395.062C689.703 394.37 689.712 394.577 689.677 393.951L689.625 392.438C689.418 390.648 689.393 388.934 689.38 387.13C689.229 389.883 689.104 393.553 688.372 396.166C687.633 394.837 688.911 384.449 689.012 382.146C689.111 379.908 689.053 377.765 688.825 375.538C688.488 376.161 688.17 376.75 687.938 377.42L687.562 376.743L686.812 377.212C686.394 376.697 686.211 376.383 686.062 375.735L685.657 375.938L685.465 382.312L685.689 382.498L686.062 381.75C686.682 382.376 686.434 383.324 686.434 384.188L686.062 384.559L685.691 384L685.327 383.468L684.936 383.871Z"/>
	<path fill="#FAFBFC" transform="scale(0.666667 0.666667)" d="M687.405 361.324L689.929 359.319L690.33 406.63L689.965 406.601C689.422 403.571 689.494 398.757 689.907 395.694L690 395.062C689.703 394.37 689.712 394.577 689.677 393.951L689.625 392.438C689.418 390.648 689.393 388.934 689.38 387.13C689.229 389.883 689.104 393.553 688.372 396.166C687.633 394.837 688.911 384.449 689.012 382.146C689.111 379.908 689.053 377.765 688.825 375.538C688.53 373.045 688.992 370.7 688.845 368.25C688.784 367.254 688.431 366.358 688.344 365.369C688.276 364.595 688.373 365.108 688.123 364.219L687.375 364.309L686.816 363.75C687.317 362.996 687.287 362.587 687.371 361.713L687.405 361.324Z"/>
	<defs>
		<linearGradient id="gradient_4" gradientUnits="userSpaceOnUse" x1="684.09698" y1="391.41199" x2="691.92297" y2="393.06">
			<stop offset="0" stop-color="white" stop-opacity="0.78823531"/>
			<stop offset="1" stop-color="white"/>
		</linearGradient>
	</defs>
	<path fill="url(#gradient_4)" transform="scale(0.666667 0.666667)" d="M684.936 383.871L685.327 383.468L685.691 384L686.062 384.559L686.434 384.188C686.434 383.324 686.682 382.376 686.062 381.75L685.689 382.498L685.465 382.312L685.657 375.938L686.062 375.735C686.211 376.383 686.394 376.697 686.812 377.212L687.562 376.743L687.938 377.42C688.17 376.75 688.488 376.161 688.825 375.538C689.053 377.765 689.111 379.908 689.012 382.146C688.911 384.449 687.633 394.837 688.372 396.166C689.104 393.553 689.229 389.883 689.38 387.13C689.393 388.934 689.418 390.648 689.625 392.438L689.677 393.951C689.712 394.577 689.703 394.37 690 395.062L689.907 395.694C689.494 398.757 689.422 403.571 689.965 406.601C688.41 407.406 686.685 407.767 685.189 408.665C684.705 405.706 684.952 402.343 684.946 399.344L684.936 383.871Z"/>
	<path fill="#FAFBFC" transform="scale(0.666667 0.666667)" d="M16.0791 447.608L72.2954 447.508L72.0499 451.499L41.0742 451.805L16.478 451.75C16.5996 450.378 16.551 450.437 17.5696 449.515L16.0791 447.608Z"/>
	<path fill="#FAFBFC" transform="scale(0.666667 0.666667)" d="M354.599 260.979L354.821 257.062C356.057 256.479 358.067 256.739 359.44 256.735L368.893 256.719L411.188 256.743L411.734 257.25L411.755 260.963L383.205 260.946L354.599 260.979Z"/>
	<path fill="#FAFBFC" transform="scale(0.666667 0.666667)" d="M417.979 409.464L417.988 404.73C423.864 404.411 466.505 403.692 468.562 405.435L468.756 408.28L467.988 409.312C463.523 409.656 458.974 409.494 454.493 409.491L437.808 409.419C431.28 409.22 424.467 408.688 417.979 409.464Z"/>
	<path fill="#FAFBFC" transform="scale(0.666667 0.666667)" d="M223.311 239.477C223.378 238.95 223.374 237.44 223.817 237.189C225.569 236.194 276.714 235.986 279.616 236.993L280.04 237.188C280.506 238.787 280.563 240.273 280.599 241.924L273.622 241.848C267.101 241.975 259.412 242.563 252.99 241.54L250.052 241.479L249.347 241.039C246.713 241.054 244.082 241.074 241.455 240.848C238.106 240.559 234.495 239.478 231.094 240.404C228.992 240.976 225.93 240.096 224.127 241.081L223.745 241.368L223.311 239.477ZM252.99 241.54C259.412 242.563 267.101 241.975 273.622 241.848L273.53 241.449L271.219 241.406C273.213 241.4 274.589 240.396 276.532 240.078C277.213 239.966 277.536 239.504 278.054 239.062L277.5 238.457C268.979 238.893 260.334 237.723 251.854 238.618C254.239 239.781 256.834 240.385 259.339 241.247L252.99 241.54Z"/>
	<defs>
		<linearGradient id="gradient_5" gradientUnits="userSpaceOnUse" x1="266.44699" y1="238.478" x2="266.40201" y2="241.215">
			<stop offset="0" stop-color="white" stop-opacity="0.92941177"/>
			<stop offset="1" stop-color="white" stop-opacity="0.98431373"/>
		</linearGradient>
	</defs>
	<path fill="url(#gradient_5)" transform="scale(0.666667 0.666667)" d="M252.99 241.54L259.339 241.247C256.834 240.385 254.239 239.781 251.854 238.618C260.334 237.723 268.979 238.893 277.5 238.457L278.054 239.062C277.536 239.504 277.213 239.966 276.532 240.078C274.589 240.396 273.213 241.4 271.219 241.406L273.53 241.449L273.622 241.848C267.101 241.975 259.412 242.563 252.99 241.54Z"/>
	<path fill="#FAFBFC" fill-opacity="0.86666667" transform="scale(0.666667 0.666667)" d="M187.704 349.492L204.021 349.462C206.704 349.449 209.868 348.903 212.438 349.765C212.759 350.659 212.756 351.551 212.799 352.488L212.946 355.224C212.654 356.163 212.39 357.054 211.952 357.937C211.56 358.729 211.524 359.369 211.4 360.225C211.3 360.919 211.383 360.65 210.938 361.252C210.142 360.739 209.915 360.471 208.956 360.422L201.562 359.491C198.259 359.301 194.91 359.611 191.625 359.362C189.981 359.237 188.509 358.317 186.785 358.327C185.978 358.332 185.468 358.197 184.688 357.987L183.829 355.312L182.302 354.787C182.788 353.269 182.972 351.825 183.147 350.25L182.377 349.695C183.932 349.309 186.075 349.529 187.704 349.492ZM187.704 349.492C186.726 351.082 186.333 352.842 185.84 354.625C188.628 354.871 191.122 354.488 193.875 354.381C197.355 354.246 200.878 354.512 204.346 354.188L204.2 353.438L205.125 353.066L205.688 353.441L206.523 353.641L206.797 354.403C207.36 354.425 207.698 354.439 208.23 354.212C208.846 353.948 209.571 350.766 209.816 350.062L211.125 349.74C212.324 350.729 212.339 351.057 212.799 352.488C212.756 351.551 212.759 350.659 212.438 349.765C209.868 348.903 206.704 349.449 204.021 349.462L187.704 349.492ZM206.797 354.403L207.203 354.785L207.939 354.844L207.938 356.816C207.032 356.641 207.47 356.767 206.625 356.441C205.589 356.59 204.846 356.633 204.039 357.375L204.027 358.5C204.764 359.132 205.823 359.556 206.812 359.577C207.188 359.585 207.268 359.537 207.581 359.438L208.956 360.422C209.915 360.471 210.142 360.739 210.938 361.252C211.383 360.65 211.3 360.919 211.4 360.225C211.524 359.369 211.56 358.729 211.952 357.937C212.39 357.054 212.654 356.163 212.946 355.224L212.799 352.488C212.339 351.057 212.324 350.729 211.125 349.74L209.816 350.062C209.571 350.766 208.846 353.948 208.23 354.212C207.698 354.439 207.36 354.425 206.797 354.403Z"/>
	<path fill="#FAFBFC" fill-opacity="0.79215688" transform="scale(0.666667 0.666667)" d="M206.797 354.403C207.36 354.425 207.698 354.439 208.23 354.212C208.846 353.948 209.571 350.766 209.816 350.062L211.125 349.74C212.324 350.729 212.339 351.057 212.799 352.488L212.946 355.224C212.654 356.163 212.39 357.054 211.952 357.937C211.56 358.729 211.524 359.369 211.4 360.225C211.3 360.919 211.383 360.65 210.938 361.252C210.142 360.739 209.915 360.471 208.956 360.422L207.581 359.438C207.268 359.537 207.188 359.585 206.812 359.577C205.823 359.556 204.764 359.132 204.027 358.5L204.039 357.375C204.846 356.633 205.589 356.59 206.625 356.441C207.47 356.767 207.032 356.641 207.938 356.816L207.939 354.844L207.203 354.785L206.797 354.403Z"/>
	<defs>
		<linearGradient id="gradient_6" gradientUnits="userSpaceOnUse" x1="198.145" y1="355.95999" x2="196.063" y2="348.58401">
			<stop offset="0" stop-color="white" stop-opacity="0.82352942"/>
			<stop offset="1" stop-color="white" stop-opacity="0.87450981"/>
		</linearGradient>
	</defs>
	<path fill="url(#gradient_6)" transform="scale(0.666667 0.666667)" d="M187.704 349.492L204.021 349.462C206.704 349.449 209.868 348.903 212.438 349.765C212.759 350.659 212.756 351.551 212.799 352.488C212.339 351.057 212.324 350.729 211.125 349.74L209.816 350.062C209.571 350.766 208.846 353.948 208.23 354.212C207.698 354.439 207.36 354.425 206.797 354.403L206.523 353.641L205.688 353.441L205.125 353.066L204.2 353.438L204.346 354.188C200.878 354.512 197.355 354.246 193.875 354.381C191.122 354.488 188.628 354.871 185.84 354.625C186.333 352.842 186.726 351.082 187.704 349.492Z"/>
	<path fill="#E3E3EB" transform="scale(0.666667 0.666667)" d="M309.826 119.992L339.913 119.63L339.75 157.242C339.018 157.048 338.44 156.856 337.744 156.581C336.538 156.105 334.777 156.267 333.489 156.258C326.799 156.211 322.04 157.095 316.077 160.153C314.457 160.984 311.542 162.934 309.791 162.856L309.826 119.992Z"/>
	<path fill="#B2BDDB" transform="scale(0.666667 0.666667)" d="M411.755 260.963L411.814 296.568C411.81 301.709 412.357 307.493 411.794 312.569C411.407 315.396 411.622 318.512 411.586 321.375L411.405 313.181C406.302 312.771 402.175 311.041 397.315 309.786C392.987 308.668 388.633 308.459 384.188 308.586L383.833 309.663C383.061 307.244 383.184 304.42 383.136 301.889L383.17 287.365L383.205 260.946L411.755 260.963Z"/>
	<path fill="#B2BDDB" transform="scale(0.666667 0.666667)" d="M250.052 241.479L252.99 241.54C259.412 242.563 267.101 241.975 273.622 241.848L280.599 241.924L280.444 341.4C279.856 339.549 280.131 337.276 280.13 335.345L280.146 322.591C280.151 321.454 280.402 319.64 280.125 318.562C279.897 317.673 279.807 317.245 279.75 316.312C278.301 315.945 277.017 315.383 275.503 315.492C273.64 315.625 270.984 315.23 269.156 314.811C267.591 314.452 265.502 314.859 263.957 315.112C262.507 315.349 260.982 315.038 259.501 315.305C258.406 315.502 257.351 315.693 256.255 315.41C255.39 315.187 254.639 315.189 253.751 315.187C253.452 315.954 253.262 316.322 253.37 317.158C253.458 317.836 253.324 318.153 253.324 318.793L253.125 331.611C253.121 334.264 253.467 337.296 252.967 339.879L252.807 340.627L252.575 337.8L252.722 256.636L252.751 245.274C252.763 244.179 253.305 242.849 252.75 241.885L250.688 241.713L250.052 241.479Z"/>
	<defs>
		<linearGradient id="gradient_7" gradientUnits="userSpaceOnUse" x1="369.06201" y1="338.28299" x2="368.884" y2="261.34299">
			<stop offset="0" stop-color="#D3BBB9"/>
			<stop offset="1" stop-color="#E3E3E3"/>
		</linearGradient>
	</defs>
	<path fill="url(#gradient_7)" transform="scale(0.666667 0.666667)" d="M354.599 260.979L383.205 260.946L383.17 287.365L383.136 301.889C383.184 304.42 383.061 307.244 383.833 309.663L384.03 339.668C383.742 339.155 383.546 338.915 383.12 338.467L382.414 338.618L382.312 339L382.616 339.323C376.504 337.273 370.214 336.094 363.786 335.821C360.885 335.698 358.11 335.555 355.295 336.44L354.917 336.566L354.852 323.054C354.837 320.921 355.099 318.315 354.603 316.242L354.42 315.532C353.755 305.833 354.292 295.756 354.294 286.018C354.295 277.883 353.594 269.023 354.599 260.979Z"/>
	<path fill="#EC5E47" transform="scale(0.666667 0.666667)" d="M689.965 406.601L690.33 406.63L690.243 487.233C688.938 487.461 687.927 488.592 686.933 489.413L681.335 494.079C673.597 500.519 665.37 506.717 657.991 513.553C658.213 508.166 657.124 502.976 657.038 497.62L657.047 455.348L657.009 442.81C656.995 439.539 657.187 436.404 656.164 433.252L671.63 420.607C676.315 416.751 681.021 413.116 685.189 408.665C686.685 407.767 688.41 407.406 689.965 406.601Z"/>
	<defs>
		<linearGradient id="gradient_8" gradientUnits="userSpaceOnUse" x1="244.25101" y1="338.069" x2="231.71201" y2="240.12199">
			<stop offset="0" stop-color="#BEC6DC"/>
			<stop offset="1" stop-color="#F8F5F1"/>
		</linearGradient>
	</defs>
	<path fill="url(#gradient_8)" transform="scale(0.666667 0.666667)" d="M223.311 239.477L223.745 241.368L224.127 241.081C225.93 240.096 228.992 240.976 231.094 240.404C234.495 239.478 238.106 240.559 241.455 240.848C244.082 241.074 246.713 241.054 249.347 241.039L250.052 241.479L250.688 241.713L252.75 241.885C253.305 242.849 252.763 244.179 252.751 245.274L252.722 256.636L252.575 337.8C249.124 337.846 245.586 336.247 242.211 335.551C236.48 334.369 231.116 334.931 225.375 335.577L224.807 335.089L223.686 335.876L223.655 316.701L223.262 316.227L223.311 239.477Z"/>
	<defs>
		<linearGradient id="gradient_9" gradientUnits="userSpaceOnUse" x1="438.58099" y1="545.14899" x2="444.89999" y2="474.936">
			<stop offset="0" stop-color="#B6032D"/>
			<stop offset="1" stop-color="#DB584F"/>
		</linearGradient>
	</defs>
	<path fill="url(#gradient_9)" transform="scale(0.666667 0.666667)" d="M417.798 478.301C418.036 477.88 418.519 477.253 418.643 476.807C419.022 475.45 418.066 474.815 420.232 474.301L422.328 474.079C422.935 474.035 422.544 474.076 423.175 473.931C424.623 473.596 426.22 474.033 427.688 474.075C429.485 474.127 431.39 473.843 433.169 474.041C434.275 474.164 435.317 474.509 436.443 474.558C438.467 474.645 441.267 474.558 443.164 475.154C444.853 475.684 446.487 475.203 448.25 475.78L449.142 475.848L456.772 476.944L458.628 477.251L459.305 477.443C460.381 477.741 462.014 478.022 463.107 477.964L464.232 477.964L464.8 477.951C465.752 477.951 466.411 478.137 467.242 478.585C467.753 479.472 467.634 478.994 467.598 480.017L468.25 479.914L468.422 520.459L417.769 545.077L417.798 478.301Z"/>
	<defs>
		<linearGradient id="gradient_10" gradientUnits="userSpaceOnUse" x1="233.978" y1="624.82599" x2="241.308" y2="521.61603">
			<stop offset="0" stop-color="#0243DC"/>
			<stop offset="1" stop-color="#4271DE"/>
		</linearGradient>
	</defs>
	<path fill="url(#gradient_10)" transform="scale(0.666667 0.666667)" d="M223.212 521.429L223.669 520.679C224.227 520.722 223.909 520.626 224.475 521.159C225.108 521.755 225.776 522.137 226.529 522.565C227.334 522.272 228.011 521.818 228.844 522.079L229.438 521.912L229.969 522.078L230.563 521.909L231.094 522.078L231.688 521.905L232.219 522.077L232.813 521.901L233.344 522.076L233.938 521.897L234.377 522.144L234.995 521.818L235.502 522.143L236.121 521.811C237.17 522.579 237.865 521.867 238.877 522.518L239.496 522.18L239.773 522.408C240.117 522.662 240.788 522.873 241.219 522.823L241.813 522.621L242.252 522.892L242.871 522.535C244.14 523.518 245.459 522.452 246.752 523.269L247.44 523.038L248.121 523.37C249.166 523.328 250.781 523.393 251.744 522.952C252.518 522.598 251.967 522.453 253.101 522.278L253.133 586.961L253.245 603.052C253.307 605.796 253.732 608.936 253.411 611.625C253.347 612.166 253.167 612.519 252.937 613.005C251.978 613.789 251.057 614.401 249.972 615.005C248.382 615.889 248.093 616.523 247.606 618.189L228.34 625.458L223.229 627.264C222.621 623.691 223.221 618.849 223.231 615.152L223.212 521.429Z"/>
	<path fill="#2045C7" transform="scale(0.666667 0.666667)" d="M223.231 615.152L223.314 615.46C223.956 618.028 222.84 621.44 225.581 623.047L225.979 623.266L226.235 623.64C226.842 624.474 227.758 624.512 228.34 625.458L223.229 627.264C222.621 623.691 223.221 618.849 223.231 615.152Z"/>
	<defs>
		<linearGradient id="gradient_11" gradientUnits="userSpaceOnUse" x1="53.069199" y1="557.63898" x2="60.710999" y2="451.19901">
			<stop offset="0" stop-color="#5252A8"/>
			<stop offset="1" stop-color="#B1B8D4"/>
		</linearGradient>
	</defs>
	<path fill="url(#gradient_11)" transform="scale(0.666667 0.666667)" d="M41.0742 451.805L72.0499 451.499L73.021 560.533L72.4857 560.479C72.4425 559.736 72.2795 559.489 71.8126 558.918C70.365 558.746 68.8116 558.279 67.3703 558.419C65.7872 558.574 64.1996 558.366 62.6224 558.126C61.9863 558.03 61.4387 557.889 60.7885 557.87C58.2652 557.797 55.1717 558.277 52.7958 557.593C52.1515 557.408 52.1292 557.495 51.5093 557.675C51.0791 557.456 49.538 553.9 49.2025 553.213L40.1631 534.346L40.2707 534.27C41.0131 532.703 41.6104 531.177 41.8364 529.444C42.5154 524.238 42.0101 518.276 42.011 512.986C42.0119 507.297 42.7368 500.456 41.6561 494.943C40.5224 489.16 40.9918 482.791 41.0484 476.918L41.0742 451.805Z"/>
	<defs>
		<linearGradient id="gradient_12" gradientUnits="userSpaceOnUse" x1="439.98001" y1="476.685" x2="446.13199" y2="408.38199">
			<stop offset="0" stop-color="#DA554F"/>
			<stop offset="1" stop-color="#FEA96D"/>
		</linearGradient>
	</defs>
	<path fill="url(#gradient_12)" transform="scale(0.666667 0.666667)" d="M417.979 409.464C424.467 408.688 431.28 409.22 437.808 409.419L454.493 409.491C458.974 409.494 463.523 409.656 467.988 409.312L468.756 408.28C468.366 411.589 468.532 415.022 468.526 418.355L468.511 434.872L468.707 459.188L468.25 479.914L467.598 480.017C467.634 478.994 467.753 479.472 467.242 478.585C466.411 478.137 465.752 477.951 464.8 477.951L464.232 477.964L463.107 477.964C462.014 478.022 460.381 477.741 459.305 477.443L458.628 477.251L456.772 476.944L449.142 475.848L448.25 475.78C446.487 475.203 444.853 475.684 443.164 475.154C441.267 474.558 438.467 474.645 436.443 474.558C435.317 474.509 434.275 474.164 433.169 474.041C431.39 473.843 429.485 474.127 427.688 474.075C426.22 474.033 424.623 473.596 423.175 473.931C422.544 474.076 422.935 474.035 422.328 474.079L420.232 474.301C418.066 474.815 419.022 475.45 418.643 476.807C418.519 477.253 418.036 477.88 417.798 478.301L417.979 409.464Z"/>
	<defs>
		<linearGradient id="gradient_13" gradientUnits="userSpaceOnUse" x1="318.418" y1="244.228" x2="270.98901" y2="126.466">
			<stop offset="0" stop-color="#63B3CF"/>
			<stop offset="1" stop-color="#8BE2D3"/>
		</linearGradient>
	</defs>
	<path fill="url(#gradient_13)" transform="scale(0.666667 0.666667)" d="M283.553 261.244L283.489 120.35L309.826 119.992L309.791 162.856L309.628 249.231L309.41 248.53C309.064 247.336 309.153 246.103 309.188 244.875L308.755 244.63C308.709 245.905 308.71 247.11 308.328 248.336L307.613 248.732L307.153 247.993L306.14 248.148L305.765 248.707C305.29 249.395 304.804 249.755 304.123 250.224L303.797 250.247C300.693 250.505 297.56 251.826 294.731 253.09L294.147 253.339C293.612 253.593 293.268 253.861 292.804 254.209C291.975 254.828 291.19 255.129 290.233 255.498C289.189 255.902 288.261 256.51 287.208 256.887C286.449 257.158 286.146 256.615 285.573 256.734C285.116 256.829 284.8 257.257 284.414 257.518C283.912 258.772 284.089 260.02 283.553 261.244Z"/>
	<path fill="#E3E3EB" transform="scale(0.666667 0.666667)" d="M657.991 513.553C665.37 506.717 673.597 500.519 681.335 494.079L686.933 489.413C687.927 488.592 688.938 487.461 690.243 487.233L690.289 590.506C684.591 600.347 676.286 608.287 668.654 616.611C664.902 620.702 661.559 625.141 657.106 628.535L657.056 514.751L657.991 513.553Z"/>
	<defs>
		<linearGradient id="gradient_14" gradientUnits="userSpaceOnUse" x1="151.177" y1="650.08398" x2="194.653" y2="570.052">
			<stop offset="0" stop-color="#002CC7"/>
			<stop offset="1" stop-color="#215BDA"/>
		</linearGradient>
	</defs>
	<path fill="url(#gradient_14)" transform="scale(0.666667 0.666667)" d="M154.935 549.772C155.568 550.464 155.953 550.981 156.832 551.366L157.156 551.816L158.625 553.714C161.271 553.231 162.707 554.728 165 555.754C172.738 559.213 180.198 563.79 187.618 567.868C191.853 570.196 196.387 572.07 200.367 574.876C201.459 575.645 202.668 576.191 203.752 576.98C204.762 577.715 205.618 578.723 206.635 579.408C207.145 579.753 208.24 579.831 208.611 580.165C209.129 580.631 208.809 581.048 209.627 581.153L211.022 581.407L211.438 579.428L211.912 579.441C212.619 591.659 211.765 604.083 211.78 616.326C211.786 621.184 211.297 626.691 212.563 631.404L155.533 653.515L154.714 653.519L154.935 549.772Z"/>
	<path fill="#B2BDDB" transform="scale(0.666667 0.666667)" d="M155.436 354.061C157.124 354.203 158.825 354.598 160.5 354.671L182.302 354.787L183.829 355.312L184.688 357.987C185.468 358.197 185.978 358.332 186.785 358.327C188.509 358.317 189.981 359.237 191.625 359.362C194.91 359.611 198.259 359.301 201.562 359.491L208.956 360.422C209.915 360.471 210.142 360.739 210.938 361.252C211.383 360.65 211.3 360.919 211.4 360.225C211.524 359.369 211.56 358.729 211.952 357.937C212.39 357.054 212.654 356.163 212.946 355.224L212.692 479.943C211.134 479.298 209.215 479.597 207.549 479.606C204.684 479.623 201.82 479.591 198.967 479.303C193.159 478.717 187.797 477.403 182.311 475.457L181.902 381.127C177.222 381.751 172.712 381.815 168 381.657C164.603 381.544 161.173 381.136 157.782 381.459L156.328 381.588L155.812 381.632L155.268 380.582L155.27 363.435C155.269 360.342 155.082 357.134 155.436 354.061Z"/>
	<path fill="#E3E3EB" transform="scale(0.666667 0.666667)" d="M182.302 354.787L183.829 355.312L184.688 357.987C185.468 358.197 185.978 358.332 186.785 358.327C188.509 358.317 189.981 359.237 191.625 359.362C194.91 359.611 198.259 359.301 201.562 359.491L183.019 360.676L182.474 375.375L182.218 356.74C182.16 356.006 182.044 355.498 182.302 354.787Z"/>
	<path fill="#B2BDDB" transform="scale(0.666667 0.666667)" d="M309.791 162.856C311.542 162.934 314.457 160.984 316.077 160.153C322.04 157.095 326.799 156.211 333.489 156.258C334.777 156.267 336.538 156.105 337.744 156.581C338.44 156.856 339.018 157.048 339.75 157.242L338.304 317.892L333.27 318.711C332.572 318.806 332.272 318.638 331.625 318.499C330.354 318.227 328.753 318.371 327.442 318.375C322.936 318.387 319.844 318.997 315.755 320.945C314.121 321.723 312.313 323.252 310.542 323.178C309.993 322.302 309.907 321.383 309.746 320.384C310.17 319.357 309.817 316.578 309.822 315.371L309.691 295.532L309.628 249.231L309.791 162.856Z"/>
	<defs>
		<linearGradient id="gradient_15" gradientUnits="userSpaceOnUse" x1="109.685" y1="506.18201" x2="107.022" y2="595.526">
			<stop offset="0" stop-color="#ACBDF2"/>
			<stop offset="1" stop-color="#6B8FFB"/>
		</linearGradient>
	</defs>
	<path fill="url(#gradient_15)" transform="scale(0.666667 0.666667)" d="M79.0037 506.683C79.6851 506.933 79.9874 507.181 80.7004 507.031C82.3657 506.682 84.1887 507.254 85.7806 506.519L86.7194 506.697L87.3128 506.492L87.7525 506.767L88.0795 506.601L89.2475 506.062L90.0025 506.392L90.6203 506.035L91.1275 506.392L91.7453 506.035L92.2525 506.392L92.8703 506.035L93.3775 506.392L93.9953 506.035L94.5025 506.392L95.1203 506.035L95.6275 506.392L96.2453 506.035L96.7525 506.392L97.3703 506.035L97.8775 506.392L98.4953 506.035L99.0026 506.392L99.6695 506.043L100.04 506.81L100.745 506.466L101.252 506.767L101.87 506.41L102.377 506.767L102.995 506.41L103.503 506.767L104.17 506.418L104.54 507.185L105.245 506.785L105.752 507.142L106.37 506.785L106.877 507.142L107.495 506.785L108.002 507.142L108.62 506.785L109.127 507.142L109.745 506.785L110.252 507.142L110.87 506.785L111.377 507.142L111.995 506.785L112.502 507.142L113.12 506.785L113.627 507.142L114.245 506.785L114.752 507.142L115.37 506.785L115.877 507.142L116.495 506.785L117.002 507.142L117.62 506.785L118.127 507.142L118.746 506.785C119.763 507.573 120.409 507.265 121.594 507.447L122.113 507.168L122.539 507.935L123.245 507.591L123.752 507.895L124.438 507.66L124.969 507.822L125.563 507.617L126.002 507.892L126.62 507.535L127.127 507.892L127.745 507.535L128.253 507.892L128.92 507.543L129.29 508.31L129.995 507.91L130.502 508.267L131.121 507.91C131.8 508.42 131.547 508.386 132.513 508.343C133.799 508.286 134.943 508.256 136.204 507.961C136.686 508.464 137.062 508.946 137.439 509.531L137.533 508.125C137.961 507.76 137.719 507.878 138.255 507.763L138.352 592.719L137.956 593.112C137.505 593.589 137.278 593.966 136.997 594.546L133.559 595.096L132.58 595.155L132.06 595.601L131.531 595.45L130.938 595.604L130.406 595.45L129.813 595.603L129.376 595.496C128.892 595.787 128.572 596.128 127.998 596.105C126.773 596.056 125.889 596.163 124.751 595.783C122.905 595.165 118.87 595.732 116.802 595.731C115.793 595.731 116.749 595.747 115.594 595.428C114.752 595.195 113.748 595.309 112.893 595.339C111.271 595.394 109.355 595.527 107.876 595.033C107.142 594.787 105.812 594.964 105.018 594.964L97.667 594.976C96.6661 594.984 95.9753 595.039 95.1222 594.478L94.6353 594.619C93.473 594.933 91.5459 595.206 90.5795 594.371L90.0864 593.819L89.3797 594.152L88.8725 593.812L88.2547 594.152L87.7475 593.812L87.1297 594.152L86.625 593.815L85.9973 594.52L85.4975 594.187L85.189 594.376C84.606 594.669 84.3349 594.521 83.7048 594.538C82.8278 594.561 81.5894 594.984 80.7503 594.804C80.2516 594.698 79.2207 593.847 78.7393 593.546L79.0037 506.683Z"/>
	<defs>
		<linearGradient id="gradient_16" gradientUnits="userSpaceOnUse" x1="233.54601" y1="522.72101" x2="242.285" y2="335.46201">
			<stop offset="0" stop-color="#4170DE"/>
			<stop offset="1" stop-color="#B4C4E0"/>
		</linearGradient>
	</defs>
	<path fill="url(#gradient_16)" transform="scale(0.666667 0.666667)" d="M223.262 316.227L223.655 316.701L223.686 335.876L224.807 335.089L225.375 335.577C231.116 334.931 236.48 334.369 242.211 335.551C245.586 336.247 249.124 337.846 252.575 337.8L252.807 340.627L252.815 378.315L252.83 392.812C252.833 395.674 253.035 398.674 252.567 401.494C252.233 403.507 252.376 405.776 252.352 407.82L252.294 419.256L252.236 459.251L252.955 471.155L252.955 479.956C252.955 481.125 252.745 482.541 253.173 483.618L253.101 522.278C251.967 522.453 252.518 522.598 251.744 522.952C250.781 523.393 249.166 523.328 248.121 523.37L247.44 523.038L246.752 523.269C245.459 522.452 244.14 523.518 242.871 522.535L242.252 522.892L241.813 522.621L241.219 522.823C240.788 522.873 240.117 522.662 239.773 522.408L239.496 522.18L238.877 522.518C237.865 521.867 237.17 522.579 236.121 521.811L235.502 522.143L234.995 521.818L234.377 522.144L233.938 521.897L233.344 522.076L232.813 521.901L232.219 522.077L231.688 521.905L231.094 522.078L230.563 521.909L229.969 522.078L229.438 521.912L228.844 522.079C228.011 521.818 227.334 522.272 226.529 522.565C225.776 522.137 225.108 521.755 224.475 521.159C223.909 520.626 224.227 520.722 223.669 520.679L223.212 521.429L223.262 316.227Z"/>
	<defs>
		<linearGradient id="gradient_17" gradientUnits="userSpaceOnUse" x1="110.017" y1="407.34698" x2="107.161" y2="508.39999">
			<stop offset="0" stop-color="#F4F0E9"/>
			<stop offset="1" stop-color="#AABCF1"/>
		</linearGradient>
	</defs>
	<path fill="url(#gradient_17)" transform="scale(0.666667 0.666667)" d="M79.0037 506.683L79.2333 434.676L79.2515 416.291C79.2593 413.746 78.8783 409.62 79.6954 407.252L138.283 407.55L138.255 507.763C137.719 507.878 137.961 507.76 137.533 508.125L137.439 509.531C137.062 508.946 136.686 508.464 136.204 507.961C134.943 508.256 133.799 508.286 132.513 508.343C131.547 508.386 131.8 508.42 131.121 507.91L130.502 508.267L129.995 507.91L129.29 508.31L128.92 507.543L128.253 507.892L127.745 507.535L127.127 507.892L126.62 507.535L126.002 507.892L125.563 507.617L124.969 507.822L124.438 507.66L123.752 507.895L123.245 507.591L122.539 507.935L122.113 507.168L121.594 507.447C120.409 507.265 119.763 507.573 118.746 506.785L118.127 507.142L117.62 506.785L117.002 507.142L116.495 506.785L115.877 507.142L115.37 506.785L114.752 507.142L114.245 506.785L113.627 507.142L113.12 506.785L112.502 507.142L111.995 506.785L111.377 507.142L110.87 506.785L110.252 507.142L109.745 506.785L109.127 507.142L108.62 506.785L108.002 507.142L107.495 506.785L106.877 507.142L106.37 506.785L105.752 507.142L105.245 506.785L104.54 507.185L104.17 506.418L103.503 506.767L102.995 506.41L102.377 506.767L101.87 506.41L101.252 506.767L100.745 506.466L100.04 506.81L99.6695 506.043L99.0026 506.392L98.4953 506.035L97.8775 506.392L97.3703 506.035L96.7525 506.392L96.2453 506.035L95.6275 506.392L95.1203 506.035L94.5025 506.392L93.9953 506.035L93.3775 506.392L92.8703 506.035L92.2525 506.392L91.7453 506.035L91.1275 506.392L90.6203 506.035L90.0025 506.392L89.2475 506.062L88.0795 506.601L87.7525 506.767L87.3128 506.492L86.7194 506.697L85.7806 506.519C84.1887 507.254 82.3657 506.682 80.7004 507.031C79.9874 507.181 79.6851 506.933 79.0037 506.683Z"/>
	<path fill="#B2BDDB" transform="scale(0.666667 0.666667)" d="M657.056 514.751L657.106 628.535C653.224 632.706 648.987 636.233 644.915 640.171C639.677 645.237 634.606 651.762 628.404 655.579C627.352 654.863 626.103 654.995 624.846 654.941L614.991 654.85L598.645 654.462C595.163 654.374 591.684 654.517 588.224 654.049C591.606 653.76 595.189 654.104 598.587 654.199L599.034 586.006L599.016 570.515C599.006 567.351 599.21 563.96 598.57 560.856L598.694 560.663C606.588 556.338 613.85 549.424 620.896 543.787L657.056 514.751Z"/>
	<path fill="#676DBB" transform="scale(0.666667 0.666667)" d="M383.833 309.663L384.188 308.586C388.633 308.459 392.987 308.668 397.315 309.786C402.175 311.041 406.302 312.771 411.405 313.181L411.586 321.375C411.622 318.512 411.407 315.396 411.794 312.569C412.305 315.456 412.105 318.493 412.084 321.415L411.836 335.368L411.932 348.762L411.539 363.174L410.24 516.028L410.239 538.74C410.238 541.602 409.648 545.881 410.58 548.526C407.139 550.698 402.988 551.976 399.274 553.657C394.181 555.962 389.109 558.702 383.862 560.615L383.562 531.147L384.03 339.668L383.833 309.663Z"/>
	<defs>
		<linearGradient id="gradient_18" gradientUnits="userSpaceOnUse" x1="377.19501" y1="510.642" x2="360.323" y2="335.60699">
			<stop offset="0" stop-color="#B73377"/>
			<stop offset="1" stop-color="#C6BDB4"/>
		</linearGradient>
	</defs>
	<path fill="url(#gradient_18)" transform="scale(0.666667 0.666667)" d="M354.42 315.532L354.603 316.242C355.099 318.315 354.837 320.921 354.852 323.054L354.917 336.566L355.295 336.44C358.11 335.555 360.885 335.698 363.786 335.821C370.214 336.094 376.504 337.273 382.616 339.323L382.312 339L382.414 338.618L383.12 338.467C383.546 338.915 383.742 339.155 384.03 339.668L383.562 531.147L383.862 560.615L375.646 564.486L353.793 574.361L353.996 536.556L354.42 315.532Z"/>
	<path fill="#C92458" transform="scale(0.666667 0.666667)" d="M353.996 536.556L354.436 537.938L354.779 537.875C355.14 531.655 354.834 525.33 354.838 519.095C354.839 517.536 354.474 514.4 355.086 513.038C355.301 512.559 355.695 512.604 356.155 512.468L356.813 512.861L357.683 511.824C358.115 512.004 358.428 512.048 358.887 512.106C360.074 511.418 361.854 511.12 363.237 511.123L364 511.15C364.48 511.077 364.972 510.742 365.488 510.664C369.581 510.04 374.821 510.597 379.003 510.64C379.738 510.144 380.446 509.665 381.276 509.336C382.157 508.987 382.226 508.385 382.644 507.567L382.783 507.75C382.638 509.144 382.873 510.502 382.783 511.875C382.622 514.346 382.377 529.466 383.219 530.692L383.562 531.147L383.862 560.615L375.646 564.486L353.793 574.361L353.996 536.556Z"/>
	<path fill="#676DBB" transform="scale(0.666667 0.666667)" d="M338.304 317.892L337.161 581.526C333.715 583.71 329.659 584.934 325.915 586.518C320.651 588.746 315.435 591.317 310.023 593.158L309.814 578.405C310.429 571.832 309.933 564.826 309.939 558.193L309.953 516.337L309.522 382.315L309.344 340.688C309.367 334.059 308.764 326.93 309.746 320.384C309.907 321.383 309.993 322.302 310.542 323.178C312.313 323.252 314.121 321.723 315.755 320.945C319.844 318.997 322.936 318.387 327.442 318.375C328.753 318.371 330.354 318.227 331.625 318.499C332.272 318.638 332.572 318.806 333.27 318.711L338.304 317.892Z"/>
	<defs>
		<linearGradient id="gradient_19" gradientUnits="userSpaceOnUse" x1="147.995" y1="548.53601" x2="223.994" y2="404.57999">
			<stop offset="0" stop-color="#205AD9"/>
			<stop offset="1" stop-color="#59AEFC"/>
		</linearGradient>
	</defs>
	<path fill="url(#gradient_19)" transform="scale(0.666667 0.666667)" d="M155.268 380.582L155.812 381.632L156.328 381.588L157.782 381.459C161.173 381.136 164.603 381.544 168 381.657C172.712 381.815 177.222 381.751 181.902 381.127L182.311 475.457C187.797 477.403 193.159 478.717 198.967 479.303C201.82 479.591 204.684 479.623 207.549 479.606C209.215 479.597 211.134 479.298 212.692 479.943L211.912 579.441L211.438 579.428L211.022 581.407L209.627 581.153C208.809 581.048 209.129 580.631 208.611 580.165C208.24 579.831 207.145 579.753 206.635 579.408C205.618 578.723 204.762 577.715 203.752 576.98C202.668 576.191 201.459 575.645 200.367 574.876C196.387 572.07 191.853 570.196 187.618 567.868C180.198 563.79 172.738 559.213 165 555.754C162.707 554.728 161.271 553.231 158.625 553.714L157.156 551.816L156.832 551.366C155.953 550.981 155.568 550.464 154.935 549.772L155.268 380.582Z"/>
	<path fill="#676DBB" transform="scale(0.666667 0.666667)" d="M252.807 340.627L252.967 339.879C253.467 337.296 253.121 334.264 253.125 331.611L253.324 318.793C253.324 318.153 253.458 317.836 253.37 317.158C253.262 316.322 253.452 315.954 253.751 315.187C254.639 315.189 255.39 315.187 256.255 315.41C257.351 315.693 258.406 315.502 259.501 315.305C260.982 315.038 262.507 315.349 263.957 315.112C265.502 314.859 267.591 314.452 269.156 314.811C270.984 315.23 273.64 315.625 275.503 315.492C277.017 315.383 278.301 315.945 279.75 316.312C279.807 317.245 279.897 317.673 280.125 318.562C280.402 319.64 280.151 321.454 280.146 322.591L280.13 335.345C280.131 337.276 279.856 339.549 280.444 341.4L280.462 484.01L280.997 570.135L280.985 593.338C280.979 596.998 280.576 601.104 281.15 604.707L247.606 618.189C248.093 616.523 248.382 615.889 249.972 615.005C251.057 614.401 251.978 613.789 252.937 613.005C253.167 612.519 253.347 612.166 253.411 611.625C253.732 608.936 253.307 605.796 253.245 603.052L253.133 586.961L253.101 522.278L253.173 483.618C252.745 482.541 252.955 481.125 252.955 479.956L252.955 471.155L252.236 459.251L252.294 419.256L252.352 407.82C252.376 405.776 252.233 403.507 252.567 401.494C253.035 398.674 252.833 395.674 252.83 392.812L252.815 378.315L252.807 340.627Z"/>
	<path fill="#2045C7" transform="scale(0.666667 0.666667)" d="M253.173 483.618L253.336 484.367C254.383 489.563 252.765 531.223 253.766 532.121L254.443 531.647L254.953 531.797C255.538 531.948 255.808 531.956 256.383 531.856L256.688 532.691L257.378 532.81L258 533.066C258.559 533.229 259.106 533.247 259.688 533.441C260.616 533.751 261.377 533.772 262.311 533.935L263.062 534.191L263.753 534.31L264.375 534.566L265.467 534.754C266.364 534.911 267.099 535.022 267.75 535.691C271.051 535.952 274.479 536.954 277.757 536.765L278.511 536.007L279.774 536.816C280.268 535.158 279.949 532.753 279.949 531.016C279.948 525.94 279.64 520.671 280.033 515.625C280.117 514.542 280.087 513.219 279.981 512.145C279.921 511.533 280.005 510.985 280.033 510.375L280.033 509.25C280.026 507.867 279.95 506.427 280.084 505.055C280.276 503.098 280.318 499.924 280.033 498C279.932 497.317 279.992 496.801 280.033 496.125C280.065 495.603 280.038 495.097 279.987 494.579C279.723 491.888 279.303 486.379 280.462 484.01L280.997 570.135L280.985 593.338C280.979 596.998 280.576 601.104 281.15 604.707L247.606 618.189C248.093 616.523 248.382 615.889 249.972 615.005C251.057 614.401 251.978 613.789 252.937 613.005C253.167 612.519 253.347 612.166 253.411 611.625C253.732 608.936 253.307 605.796 253.245 603.052L253.133 586.961L253.101 522.278L253.173 483.618Z"/>
	<defs>
		<linearGradient id="gradient_20" gradientUnits="userSpaceOnUse" x1="353.51099" y1="560.76099" x2="241.07401" y2="270.68301">
			<stop offset="0" stop-color="#043CC6"/>
			<stop offset="1" stop-color="#66B1D0"/>
		</linearGradient>
	</defs>
	<path fill="url(#gradient_20)" transform="scale(0.666667 0.666667)" d="M283.553 261.244C284.089 260.02 283.912 258.772 284.414 257.518C284.8 257.257 285.116 256.829 285.573 256.734C286.146 256.615 286.449 257.158 287.208 256.887C288.261 256.51 289.189 255.902 290.233 255.498C291.19 255.129 291.975 254.828 292.804 254.209C293.268 253.861 293.612 253.593 294.147 253.339L294.731 253.09C297.56 251.826 300.693 250.505 303.797 250.247L304.123 250.224C304.804 249.755 305.29 249.395 305.765 248.707L306.14 248.148L307.153 247.993L307.613 248.732L308.328 248.336C308.71 247.11 308.709 245.905 308.755 244.63L309.188 244.875C309.153 246.103 309.064 247.336 309.41 248.53L309.628 249.231L309.691 295.532L309.822 315.371C309.817 316.578 310.17 319.357 309.746 320.384C308.764 326.93 309.367 334.059 309.344 340.688L309.522 382.315L309.953 516.337L309.939 558.193C309.933 564.826 310.429 571.832 309.814 578.405L310.023 593.158L283.865 603.614L283.816 586.156L283.553 261.244Z"/>
	<path fill="#2045C7" transform="scale(0.666667 0.666667)" d="M283.816 586.156L284.658 586.199L284.699 584.222C285.349 584.292 285.067 584.299 285.764 584.207L286.275 584.133C286.286 584.914 286.384 585.565 286.567 586.324C287.501 585.872 287.684 585.976 288.727 586.136L289.688 585.175C290.879 585.134 291.567 584.534 292.688 584.265C293.16 584.152 293.566 584.106 294.018 583.905C294.683 583.608 295.032 583.415 295.782 583.31C296.614 583.194 296.506 583.183 297.103 582.682L297.637 582.755C298.811 581.672 300.841 581.44 302.262 580.729C303.393 580.163 302.161 580.598 303.188 580.252C304.5 579.809 305.126 579.482 306.143 578.514C306.785 577.904 307.124 578.111 307.984 578.093L309.182 576.202L309.814 578.405L310.023 593.158L283.865 603.614L283.816 586.156Z"/>
	<defs>
		<linearGradient id="gradient_21" gradientUnits="userSpaceOnUse" x1="354.246" y1="640.30701" x2="184.01601" y2="579.58801">
			<stop offset="0" stop-color="#A692BD"/>
			<stop offset="1" stop-color="#80A5FE"/>
		</linearGradient>
	</defs>
	<path fill="url(#gradient_21)" transform="scale(0.666667 0.666667)" d="M353.793 574.361L375.646 564.486L376.356 565.875C377.226 566.068 377.731 565.937 378.249 566.755L378.567 567.409L378.118 567.903C376.982 569.202 376.876 570.856 376.132 572.331C375.646 573.294 374.785 574.221 374.212 575.178C373.109 577.017 372.35 578.088 371.869 580.233C371.659 581.17 371.112 581.646 370.807 582.504L368.25 589.945C367.991 590.604 367.99 590.925 368.081 591.613L367.818 592.023C367.15 593.234 366.95 594.653 366.579 595.972L366.374 596.636C366.018 597.849 366.295 599.114 366.024 600.375L365.9 600.974C365.718 601.699 365.403 602.26 365.051 602.913C365.586 603.99 365.895 604.747 366.992 605.365L366.703 605.565C365.596 606.343 364.804 606.969 363.933 608.002L365.923 608.485L383.389 600.869L383.677 653.629L352.519 653.942L309.108 653.938L282.269 654.007L250.513 653.99L187.115 653.993L169.661 654.013C165.094 654.052 159.986 654.627 155.533 653.515L212.563 631.404L223.229 627.264L228.34 625.458L247.606 618.189L281.15 604.707L283.865 603.614L310.023 593.158C315.435 591.317 320.651 588.746 325.915 586.518C329.659 584.934 333.715 583.71 337.161 581.526L353.793 574.361Z"/>
	<path fill="#10145E" transform="scale(0.666667 0.666667)" d="M282.236 653.724C281.737 653.676 281.313 653.566 280.83 653.438L281.055 642.606L284.924 640.989C284.927 642.584 285.35 652.299 284.95 653.062C284.837 653.277 284.608 653.406 284.438 653.578L282.236 653.724Z"/>
	<path fill="#7932A3" transform="scale(0.666667 0.666667)" d="M308.596 631.89C309.02 636.874 308.974 641.85 308.982 646.847C308.986 649.106 308.734 651.73 309.108 653.938L282.269 654.007L282.236 653.724L284.438 653.578C284.608 653.406 284.837 653.277 284.95 653.062C285.35 652.299 284.927 642.584 284.924 640.989L308.596 631.89Z"/>
	<path fill="#2045C7" transform="scale(0.666667 0.666667)" d="M352.636 613.82C353.112 617.109 352.959 620.511 352.964 623.831L352.969 639.391L352.95 648.856C352.942 650.322 353.074 652.267 352.597 653.657L352.519 653.942L309.108 653.938C308.734 651.73 308.986 649.106 308.982 646.847C308.974 641.85 309.02 636.874 308.596 631.89L336.048 621.087L352.636 613.82Z"/>
	<path fill="#10145E" transform="scale(0.666667 0.666667)" d="M352.636 613.82C353.112 617.109 352.959 620.511 352.964 623.831L352.969 639.391L352.95 648.856C352.942 650.322 353.074 652.267 352.597 653.657L336.125 653.65L336.048 621.087L352.636 613.82Z"/>
	<path fill="#C92458" transform="scale(0.666667 0.666667)" d="M365.923 608.485L383.389 600.869L383.677 653.629L352.519 653.942L352.597 653.657C353.074 652.267 352.942 650.322 352.95 648.856L352.969 639.391L352.964 623.831C352.959 620.511 353.112 617.109 352.636 613.82L365.923 608.485Z"/>
	<defs>
		<linearGradient id="gradient_22" gradientUnits="userSpaceOnUse" x1="643.96002" y1="527.258" x2="414.866" y2="450.099">
			<stop offset="0" stop-color="#D87768"/>
			<stop offset="1" stop-color="#A491BE"/>
		</linearGradient>
	</defs>
	<path fill="url(#gradient_22)" transform="scale(0.666667 0.666667)" d="M687.405 361.324L687.371 361.713C687.287 362.587 687.317 362.996 686.816 363.75L687.375 364.309L688.123 364.219C688.373 365.108 688.276 364.595 688.344 365.369C688.431 366.358 688.784 367.254 688.845 368.25C688.992 370.7 688.53 373.045 688.825 375.538C688.488 376.161 688.17 376.75 687.938 377.42L687.562 376.743L686.812 377.212C686.394 376.697 686.211 376.383 686.062 375.735L685.657 375.938L685.465 382.312L685.689 382.498L686.062 381.75C686.682 382.376 686.434 383.324 686.434 384.188L686.062 384.559L685.691 384L685.327 383.468L684.936 383.871L684.946 399.344C684.952 402.343 684.705 405.706 685.189 408.665C681.021 413.116 676.315 416.751 671.63 420.607L656.164 433.252C657.187 436.404 656.995 439.539 657.009 442.81L657.047 455.348L657.038 497.62C657.124 502.976 658.213 508.166 657.991 513.553L657.056 514.751L620.896 543.787C613.85 549.424 606.588 556.338 598.694 560.663L598.57 560.856L542.596 597.172L500.239 615.994C495.919 617.963 490.617 619.607 486.711 622.199L486.268 622.331L472.292 629.591L471.866 630.005L424.103 653.393C421.24 653.807 418.6 654.005 415.709 653.87L415.587 653.77L410.348 653.632L383.677 653.629L383.389 600.869L365.923 608.485L363.933 608.002C364.804 606.969 365.596 606.343 366.703 605.565L366.992 605.365C365.895 604.747 365.586 603.99 365.051 602.913C365.403 602.26 365.718 601.699 365.9 600.974L366.024 600.375C366.295 599.114 366.018 597.849 366.374 596.636L366.579 595.972C366.95 594.653 367.15 593.234 367.818 592.023L368.081 591.613C367.99 590.925 367.991 590.604 368.25 589.945L370.807 582.504C371.112 581.646 371.659 581.17 371.869 580.233C372.35 578.088 373.109 577.017 374.212 575.178C374.785 574.221 375.646 573.294 376.132 572.331C376.876 570.856 376.982 569.202 378.118 567.903L378.567 567.409L378.249 566.755C377.731 565.937 377.226 566.068 376.356 565.875L375.646 564.486L383.862 560.615C389.109 558.702 394.181 555.962 399.274 553.657C402.988 551.976 407.139 550.698 410.58 548.526L417.769 545.077L468.422 520.459C498.696 505.442 526.528 485.178 553.938 465.563L599.731 432.576L626.71 411.074L684.609 364.045C685.236 363.053 686.532 362.126 687.405 361.324ZM687.405 361.324C686.532 362.126 685.236 363.053 684.609 364.045L684.936 383.871L685.327 383.468L685.691 384L686.062 384.559L686.434 384.188C686.434 383.324 686.682 382.376 686.062 381.75L685.689 382.498L685.465 382.312L685.657 375.938L686.062 375.735C686.211 376.383 686.394 376.697 686.812 377.212L687.562 376.743L687.938 377.42C688.17 376.75 688.488 376.161 688.825 375.538C688.53 373.045 688.992 370.7 688.845 368.25C688.784 367.254 688.431 366.358 688.344 365.369C688.276 364.595 688.373 365.108 688.123 364.219L687.375 364.309L686.816 363.75C687.317 362.996 687.287 362.587 687.371 361.713L687.405 361.324Z"/>
	<defs>
		<linearGradient id="gradient_23" gradientUnits="userSpaceOnUse" x1="689.68103" y1="373.79401" x2="684.18402" y2="369.01199">
			<stop offset="0" stop-color="white" stop-opacity="0.82745099"/>
			<stop offset="1" stop-color="white" stop-opacity="0.98039216"/>
		</linearGradient>
	</defs>
	<path fill="url(#gradient_23)" transform="scale(0.666667 0.666667)" d="M687.405 361.324L687.371 361.713C687.287 362.587 687.317 362.996 686.816 363.75L687.375 364.309L688.123 364.219C688.373 365.108 688.276 364.595 688.344 365.369C688.431 366.358 688.784 367.254 688.845 368.25C688.992 370.7 688.53 373.045 688.825 375.538C688.488 376.161 688.17 376.75 687.938 377.42L687.562 376.743L686.812 377.212C686.394 376.697 686.211 376.383 686.062 375.735L685.657 375.938L685.465 382.312L685.689 382.498L686.062 381.75C686.682 382.376 686.434 383.324 686.434 384.188L686.062 384.559L685.691 384L685.327 383.468L684.936 383.871L684.609 364.045C685.236 363.053 686.532 362.126 687.405 361.324Z"/>
	<path fill="#7932A3" transform="scale(0.666667 0.666667)" d="M415.967 586.603L471.895 558.934L472.043 577.798L472.044 610.04C472.045 616.392 471.512 623.311 472.292 629.591L471.866 630.005L424.103 653.393C421.24 653.807 418.6 654.005 415.709 653.87L415.587 653.77L410.348 653.632L383.677 653.629L383.389 600.869L409.988 589.027C411.879 588.046 413.979 587.366 415.967 586.603Z"/>
	<path fill="#10145E" transform="scale(0.666667 0.666667)" d="M415.967 586.603C416.413 587.273 416.56 587.638 416.638 588.46C416.919 591.418 416.732 594.549 416.731 597.524L416.525 616.802L416.438 652.925C416.156 653.258 415.94 653.509 415.587 653.77L410.348 653.632L410.304 637.532L410.298 607.266C410.298 601.299 410.765 594.918 409.988 589.027C411.879 588.046 413.979 587.366 415.967 586.603Z"/>
	<path fill="#7932A3" transform="scale(0.666667 0.666667)" d="M383.389 600.869L409.988 589.027C410.765 594.918 410.298 601.299 410.298 607.266L410.304 637.532L410.348 653.632L383.677 653.629L383.389 600.869Z"/>
	<path fill="#C92458" transform="scale(0.666667 0.666667)" d="M656.164 433.252C657.187 436.404 656.995 439.539 657.009 442.81L657.047 455.348L657.038 497.62C657.124 502.976 658.213 508.166 657.991 513.553L657.056 514.751L620.896 543.787C613.85 549.424 606.588 556.338 598.694 560.663L598.57 560.856L542.596 597.172L500.239 615.994C495.919 617.963 490.617 619.607 486.711 622.199L486.268 622.331L472.292 629.591C471.512 623.311 472.045 616.392 472.044 610.04L472.043 577.798L471.895 558.934L585.421 487.672L656.164 433.252Z"/>
	<path fill="#E3463E" transform="scale(0.666667 0.666667)" d="M656.164 433.252C657.187 436.404 656.995 439.539 657.009 442.81L657.047 455.348L657.038 497.62C657.124 502.976 658.213 508.166 657.991 513.553L657.056 514.751L620.896 543.787C613.85 549.424 606.588 556.338 598.694 560.663L597.853 478.732C594.568 481.369 589.957 486.884 585.747 487.623L585.421 487.672L656.164 433.252Z"/>
	<path fill="#10145E" transform="scale(0.666667 0.666667)" d="M542.596 597.172L598.57 560.856C599.21 563.96 599.006 567.351 599.016 570.515L599.034 586.006L598.587 654.199C595.189 654.104 591.606 653.76 588.224 654.049C591.684 654.517 595.163 654.374 598.645 654.462L614.991 654.85L624.846 654.941C626.103 654.995 627.352 654.863 628.404 655.579C626.512 657.637 624.69 659.888 622.687 661.828C619.354 665.058 615.312 667.969 611.723 670.931C609.232 673.376 606.096 675.536 603.267 677.591L588.739 687.751C546.155 716.87 498.702 738.548 447.858 748.244C398.29 757.697 346.332 756.204 297.575 743.122C264.061 734.129 231.627 719.59 201.546 702.403C184.631 692.739 168.623 681.545 152.534 670.612C146.259 666.908 140.865 660.099 135.388 655.249L138.19 654.435L154.714 653.519L155.533 653.515C159.986 654.627 165.094 654.052 169.661 654.013L187.115 653.993L250.513 653.99L282.269 654.007L309.108 653.938L352.519 653.942L383.677 653.629L410.348 653.632L415.587 653.77L415.709 653.87C418.6 654.005 421.24 653.807 424.103 653.393L471.866 630.005L472.292 629.591L486.268 622.331L486.711 622.199C490.617 619.607 495.919 617.963 500.239 615.994L542.596 597.172ZM542.596 597.172L500.239 615.994C495.919 617.963 490.617 619.607 486.711 622.199L486.268 622.331L472.292 629.591L471.866 630.005L424.103 653.393C421.24 653.807 418.6 654.005 415.709 653.87L415.587 653.77L410.348 653.632L383.677 653.629L352.519 653.942L309.108 653.938L282.269 654.007L250.513 653.99L187.115 653.993L169.661 654.013C165.094 654.052 159.986 654.627 155.533 653.515L154.714 653.519L138.19 654.435L135.388 655.249C140.865 660.099 146.259 666.908 152.534 670.612L608.057 670.545C609.287 670.455 610.516 670.716 611.723 670.931C615.312 667.969 619.354 665.058 622.687 661.828C624.69 659.888 626.512 657.637 628.404 655.579C627.352 654.863 626.103 654.995 624.846 654.941L614.991 654.85L598.645 654.462C595.163 654.374 591.684 654.517 588.224 654.049C591.606 653.76 595.189 654.104 598.587 654.199L599.034 586.006L599.016 570.515C599.006 567.351 599.21 563.96 598.57 560.856L542.596 597.172Z"/>
	<path fill="#E3E3EB" transform="scale(0.666667 0.666667)" d="M542.596 597.172L598.57 560.856C599.21 563.96 599.006 567.351 599.016 570.515L599.034 586.006L598.587 654.199C595.189 654.104 591.606 653.76 588.224 654.049C591.684 654.517 595.163 654.374 598.645 654.462L614.991 654.85L624.846 654.941C626.103 654.995 627.352 654.863 628.404 655.579C626.512 657.637 624.69 659.888 622.687 661.828C619.354 665.058 615.312 667.969 611.723 670.931C610.516 670.716 609.287 670.455 608.057 670.545L152.534 670.612C146.259 666.908 140.865 660.099 135.388 655.249L138.19 654.435L154.714 653.519L155.533 653.515C159.986 654.627 165.094 654.052 169.661 654.013L187.115 653.993L250.513 653.99L282.269 654.007L309.108 653.938L352.519 653.942L383.677 653.629L410.348 653.632L415.587 653.77L415.709 653.87C418.6 654.005 421.24 653.807 424.103 653.393L471.866 630.005L472.292 629.591L486.268 622.331L486.711 622.199C490.617 619.607 495.919 617.963 500.239 615.994L542.596 597.172ZM486.268 622.331L472.292 629.591L471.866 630.005C472.681 637.7 472.342 646.186 472.063 653.94L486.264 653.974L486.268 622.331Z"/>
	<defs>
		<linearGradient id="gradient_24" gradientUnits="userSpaceOnUse" x1="472.495" y1="651.43402" x2="488.60599" y2="625.07202">
			<stop offset="0" stop-color="white" stop-opacity="0.93333334"/>
			<stop offset="1" stop-color="white"/>
		</linearGradient>
	</defs>
	<path fill="url(#gradient_24)" transform="scale(0.666667 0.666667)" d="M486.268 622.331L486.264 653.974L472.063 653.94C472.342 646.186 472.681 637.7 471.866 630.005L472.292 629.591L486.268 622.331Z"/>
	<path fill="#9698EC" transform="scale(0.666667 0.666667)" d="M471.866 630.005C472.681 637.7 472.342 646.186 472.063 653.94C464.165 654.465 455.925 654 447.994 654.001L433.276 654.002C430.4 654.004 426.809 654.406 424.103 653.393L471.866 630.005Z"/>
	<path fill="#9698EC" transform="scale(0.666667 0.666667)" d="M542.596 597.172L598.57 560.856C599.21 563.96 599.006 567.351 599.016 570.515L599.034 586.006L598.587 654.199C595.189 654.104 591.606 653.76 588.224 654.049L489.725 653.952L487.125 653.92C486.14 652.815 486.709 626.069 486.711 622.199C490.617 619.607 495.919 617.963 500.239 615.994L542.596 597.172Z"/>
	<path fill="#7932A3" transform="scale(0.666667 0.666667)" d="M542.596 597.172L542.998 653.71L507.051 653.689L496.313 653.596C494.215 653.582 491.761 653.459 489.725 653.952L487.125 653.92C486.14 652.815 486.709 626.069 486.711 622.199C490.617 619.607 495.919 617.963 500.239 615.994L542.596 597.172Z"/>
</svg>
